<svg id="Layer_2" xmlns="http://www.w3.org/2000/svg" viewBox="0 0 41.25 41.25"><defs><style>.cls-1{fill:#fff;}.cls-2{fill:#90cb80;}</style></defs><g id="CC"><circle class="cls-2" cx="20.62" cy="20.62" r="20.62"/><g><path class="cls-1" d="M19.65,27.48c0,.25,0,.47-.02,.65-.02,.18-.04,.33-.07,.46-.03,.13-.07,.24-.12,.33s-.13,.2-.24,.31c-.11,.12-.33,.27-.65,.45-.32,.18-.71,.36-1.17,.52-.46,.17-.99,.31-1.58,.42s-1.23,.17-1.92,.17c-1.35,0-2.56-.21-3.65-.62-1.08-.42-2-1.04-2.76-1.86s-1.34-1.86-1.75-3.09c-.41-1.24-.61-2.67-.61-4.31s.22-3.16,.67-4.45c.45-1.3,1.07-2.39,1.87-3.27,.8-.88,1.76-1.55,2.88-2.01,1.12-.46,2.35-.68,3.7-.68,.55,0,1.07,.05,1.58,.14,.51,.09,.97,.21,1.41,.36,.43,.15,.82,.32,1.16,.51s.58,.36,.72,.49,.23,.25,.28,.34c.05,.09,.09,.21,.12,.35,.03,.14,.05,.31,.07,.5,.02,.19,.02,.43,.02,.71,0,.3-.01,.56-.03,.77-.02,.21-.06,.38-.11,.52-.05,.13-.11,.23-.18,.29-.07,.06-.15,.09-.24,.09-.15,0-.34-.09-.58-.27-.23-.18-.53-.37-.9-.59-.37-.22-.81-.42-1.32-.59-.51-.18-1.12-.27-1.83-.27-.78,0-1.48,.16-2.09,.48-.61,.32-1.13,.77-1.56,1.37-.43,.59-.76,1.31-.98,2.15s-.33,1.79-.33,2.84c0,1.15,.12,2.16,.36,3,.24,.85,.58,1.54,1.02,2.09,.44,.55,.97,.95,1.6,1.22,.62,.27,1.32,.4,2.1,.4,.71,0,1.32-.08,1.84-.25,.52-.17,.96-.35,1.33-.55,.37-.2,.67-.38,.91-.55s.42-.24,.55-.24c.1,0,.18,.02,.24,.06,.06,.04,.11,.12,.15,.24,.04,.12,.07,.29,.09,.51s.03,.51,.03,.87Z"/><path class="cls-1" d="M36.12,27.48c0,.25,0,.47-.02,.65-.02,.18-.04,.33-.07,.46-.03,.13-.07,.24-.12,.33s-.13,.2-.24,.31c-.11,.12-.33,.27-.65,.45-.32,.18-.71,.36-1.17,.52-.46,.17-.99,.31-1.58,.42s-1.23,.17-1.92,.17c-1.35,0-2.56-.21-3.65-.62-1.08-.42-2-1.04-2.76-1.86s-1.34-1.86-1.75-3.09c-.41-1.24-.61-2.67-.61-4.31s.22-3.16,.67-4.45c.45-1.3,1.07-2.39,1.87-3.27,.8-.88,1.76-1.55,2.88-2.01,1.12-.46,2.35-.68,3.7-.68,.55,0,1.07,.05,1.58,.14,.51,.09,.97,.21,1.41,.36,.43,.15,.82,.32,1.16,.51s.58,.36,.72,.49,.23,.25,.28,.34c.05,.09,.09,.21,.12,.35,.03,.14,.05,.31,.07,.5,.02,.19,.02,.43,.02,.71,0,.3-.01,.56-.03,.77-.02,.21-.06,.38-.11,.52-.05,.13-.11,.23-.18,.29-.07,.06-.15,.09-.24,.09-.15,0-.34-.09-.58-.27-.23-.18-.53-.37-.9-.59-.37-.22-.81-.42-1.32-.59-.51-.18-1.12-.27-1.83-.27-.78,0-1.48,.16-2.09,.48-.61,.32-1.13,.77-1.56,1.37-.43,.59-.76,1.31-.98,2.15s-.33,1.79-.33,2.84c0,1.15,.12,2.16,.36,3,.24,.85,.58,1.54,1.02,2.09,.44,.55,.97,.95,1.6,1.22,.62,.27,1.32,.4,2.1,.4,.71,0,1.32-.08,1.84-.25,.52-.17,.96-.35,1.33-.55,.37-.2,.67-.38,.91-.55s.42-.24,.55-.24c.1,0,.18,.02,.24,.06,.06,.04,.11,.12,.15,.24,.04,.12,.07,.29,.09,.51s.03,.51,.03,.87Z"/></g></g></svg>