<svg id="Layer_2" xmlns="http://www.w3.org/2000/svg" viewBox="0 0 85.81 41.69"><defs><style>.cls-1{fill:#fff;}.cls-2{fill:#448cca;}</style></defs><g id="GLOB"><rect class="cls-2" x="0" y="0" width="85.81" height="41.69" rx="20.85" ry="20.85"/><g><path class="cls-1" d="M28.22,15.19c0,.25-.01,.46-.03,.63s-.05,.32-.09,.43-.08,.18-.14,.22-.12,.06-.2,.06c-.11,0-.29-.08-.53-.23s-.57-.32-.98-.5-.89-.34-1.45-.5-1.22-.23-1.96-.23c-.8,0-1.52,.14-2.16,.41s-1.19,.66-1.65,1.17-.81,1.11-1.05,1.82-.37,1.49-.37,2.34c0,.94,.12,1.77,.37,2.48s.6,1.31,1.05,1.8,.99,.85,1.62,1.09,1.33,.37,2.09,.37c.37,0,.74-.04,1.1-.13s.7-.21,1.02-.38v-3.81h-3.11c-.15,0-.27-.1-.36-.29s-.13-.51-.13-.97c0-.24,.01-.44,.03-.6s.05-.29,.1-.39,.09-.17,.15-.22,.13-.07,.2-.07h5.55c.14,0,.26,.02,.36,.07s.2,.12,.28,.21,.14,.21,.18,.34,.06,.28,.06,.45v6.54c0,.25-.04,.48-.13,.67s-.27,.34-.55,.45-.62,.22-1.02,.34-.83,.22-1.26,.3-.88,.15-1.32,.19-.89,.06-1.34,.06c-1.31,0-2.49-.19-3.52-.56s-1.92-.92-2.63-1.64-1.27-1.59-1.65-2.62-.57-2.19-.57-3.5,.2-2.55,.61-3.62,.98-1.98,1.73-2.73,1.64-1.32,2.7-1.72,2.23-.6,3.52-.6c.71,0,1.36,.05,1.94,.15s1.09,.22,1.53,.36,.8,.29,1.09,.45,.49,.3,.6,.42,.2,.29,.25,.5,.08,.54,.08,.96Z"/><path class="cls-1" d="M40.64,27.66c0,.25-.01,.47-.03,.64s-.05,.32-.1,.43-.1,.2-.16,.25-.14,.08-.22,.08h-7.53c-.28,0-.51-.08-.7-.25s-.29-.43-.29-.81V13.09c0-.08,.03-.16,.08-.23s.15-.12,.27-.17,.3-.08,.51-.1,.48-.04,.81-.04,.6,.01,.81,.04,.38,.06,.51,.1,.22,.1,.27,.17,.08,.14,.08,.23v13.22h5.17c.08,0,.16,.02,.22,.07s.12,.12,.16,.23,.07,.25,.1,.42,.03,.39,.03,.64Z"/><path class="cls-1" d="M56.93,20.66c0,1.36-.17,2.58-.51,3.66s-.84,1.99-1.51,2.74-1.5,1.32-2.48,1.71-2.13,.59-3.42,.59-2.39-.17-3.35-.5-1.75-.84-2.38-1.53-1.11-1.56-1.43-2.62-.48-2.31-.48-3.76c0-1.33,.17-2.52,.51-3.59s.84-1.97,1.51-2.71,1.5-1.32,2.48-1.71,2.13-.6,3.43-.6,2.34,.17,3.29,.5,1.75,.84,2.39,1.52,1.12,1.55,1.45,2.6,.49,2.28,.49,3.7Zm-3.5,.18c0-.86-.07-1.65-.2-2.35s-.37-1.31-.69-1.82-.76-.89-1.3-1.17-1.22-.41-2.03-.41-1.51,.15-2.06,.46-.99,.72-1.33,1.24-.58,1.12-.72,1.81-.21,1.42-.21,2.19c0,.9,.07,1.7,.2,2.42s.36,1.33,.69,1.83,.75,.9,1.29,1.16,1.22,.4,2.04,.4,1.51-.15,2.06-.46,.99-.72,1.33-1.24,.58-1.14,.72-1.83,.21-1.44,.21-2.23Z"/><path class="cls-1" d="M71.63,24.14c0,.58-.08,1.11-.24,1.59s-.38,.89-.67,1.26-.62,.68-1.02,.94-.83,.48-1.3,.65-.98,.29-1.52,.37-1.14,.12-1.8,.12h-4.37c-.28,0-.51-.08-.7-.25s-.29-.43-.29-.81V13.69c0-.37,.1-.64,.29-.81s.43-.25,.7-.25h4.13c1.01,0,1.86,.08,2.56,.25s1.29,.43,1.76,.77,.84,.78,1.1,1.3,.38,1.14,.38,1.85c0,.4-.05,.77-.15,1.12s-.25,.67-.44,.96-.43,.54-.72,.76-.61,.4-.97,.53c.47,.08,.9,.23,1.29,.44s.74,.48,1.03,.82,.52,.73,.69,1.17,.25,.95,.25,1.51Zm-4.32-6.92c0-.33-.05-.63-.15-.89s-.25-.48-.46-.65-.46-.31-.77-.4-.72-.14-1.24-.14h-1.69v4.27h1.87c.48,0,.87-.06,1.16-.17s.53-.27,.72-.47,.33-.43,.43-.7,.14-.55,.14-.84Zm.85,7.03c0-.38-.06-.72-.19-1.02s-.31-.55-.56-.76-.56-.36-.94-.47-.88-.17-1.49-.17h-1.98v4.67h2.41c.47,0,.86-.05,1.17-.15s.59-.24,.83-.43,.41-.43,.55-.71,.2-.61,.2-.97Z"/></g></g></svg>