<svg id="Layer_2" xmlns="http://www.w3.org/2000/svg" viewBox="0 0 85.81 41.69"><defs><style>.cls-1{fill:#fff;}.cls-2{fill:#448cca;}</style></defs><g id="LGLO"><rect class="cls-2" x="0" y="0" width="85.81" height="41.69" rx="20.85" ry="20.85"/><g><path class="cls-1" d="M25.75,27.66c0,.25-.01,.47-.03,.64-.02,.17-.05,.32-.1,.43-.04,.11-.09,.2-.16,.25s-.14,.08-.22,.08h-7.53c-.28,0-.51-.08-.7-.25s-.29-.43-.29-.81V13.09c0-.08,.03-.16,.08-.23,.05-.07,.15-.12,.27-.17s.3-.08,.51-.1,.48-.04,.81-.04,.6,.01,.81,.04c.21,.03,.38,.06,.51,.1s.22,.1,.27,.17c.05,.07,.08,.14,.08,.23v13.22h5.17c.08,0,.16,.02,.22,.07s.12,.12,.16,.23c.04,.11,.07,.25,.1,.42,.02,.17,.03,.39,.03,.64Z"/><path class="cls-1" d="M40.38,15.18c0,.25-.01,.46-.03,.63-.02,.18-.05,.32-.09,.43s-.08,.18-.14,.22c-.06,.04-.12,.06-.2,.06-.11,0-.29-.08-.53-.23-.25-.15-.57-.32-.98-.5s-.89-.34-1.45-.5c-.56-.15-1.22-.23-1.96-.23-.79,0-1.51,.14-2.16,.41-.64,.27-1.19,.66-1.65,1.17s-.81,1.11-1.05,1.82c-.25,.71-.37,1.49-.37,2.34,0,.94,.12,1.77,.38,2.48,.25,.72,.6,1.31,1.05,1.8,.45,.48,.99,.85,1.62,1.09,.63,.25,1.33,.37,2.09,.37,.37,0,.74-.04,1.1-.13,.36-.08,.7-.21,1.02-.38v-3.81h-3.11c-.15,0-.27-.1-.36-.29-.08-.19-.13-.51-.13-.97,0-.24,.01-.44,.03-.6,.02-.16,.05-.29,.09-.39,.04-.1,.09-.17,.15-.22,.06-.05,.13-.07,.2-.07h5.55c.14,0,.26,.02,.36,.07,.11,.05,.2,.12,.28,.21,.08,.09,.14,.21,.18,.34,.04,.13,.06,.28,.06,.45v6.54c0,.25-.04,.48-.13,.67s-.27,.34-.55,.45c-.28,.11-.62,.22-1.02,.34s-.83,.22-1.26,.3c-.44,.08-.88,.15-1.32,.19s-.89,.06-1.34,.06c-1.31,0-2.49-.19-3.52-.56-1.04-.38-1.92-.92-2.63-1.64-.72-.72-1.27-1.59-1.65-2.62s-.57-2.19-.57-3.5,.2-2.55,.61-3.62,.98-1.98,1.73-2.73c.75-.75,1.64-1.32,2.7-1.72s2.23-.6,3.52-.6c.71,0,1.36,.05,1.94,.15s1.09,.22,1.53,.36c.44,.14,.8,.29,1.08,.45,.29,.16,.49,.3,.6,.42s.2,.29,.25,.5,.08,.54,.08,.96Z"/><path class="cls-1" d="M52.8,27.66c0,.25-.01,.47-.03,.64-.02,.17-.05,.32-.1,.43-.04,.11-.09,.2-.16,.25s-.14,.08-.22,.08h-7.53c-.28,0-.51-.08-.7-.25s-.29-.43-.29-.81V13.09c0-.08,.03-.16,.08-.23,.05-.07,.15-.12,.27-.17s.3-.08,.51-.1,.48-.04,.81-.04,.6,.01,.81,.04c.21,.03,.38,.06,.51,.1s.22,.1,.27,.17c.05,.07,.08,.14,.08,.23v13.22h5.17c.08,0,.16,.02,.22,.07s.12,.12,.16,.23c.04,.11,.07,.25,.1,.42,.02,.17,.03,.39,.03,.64Z"/><path class="cls-1" d="M69.09,20.65c0,1.36-.17,2.58-.51,3.66-.34,1.07-.84,1.99-1.51,2.74-.67,.75-1.5,1.32-2.48,1.71-.99,.39-2.13,.59-3.42,.59s-2.39-.17-3.34-.5-1.75-.84-2.38-1.53-1.11-1.56-1.43-2.62-.48-2.31-.48-3.76c0-1.33,.17-2.52,.51-3.59,.34-1.06,.84-1.97,1.51-2.71,.67-.74,1.5-1.32,2.48-1.71,.99-.4,2.13-.6,3.43-.6s2.34,.17,3.29,.5,1.75,.84,2.39,1.52c.64,.69,1.12,1.55,1.45,2.6,.33,1.05,.49,2.28,.49,3.7Zm-3.5,.18c0-.86-.07-1.65-.2-2.35-.13-.71-.37-1.31-.69-1.82-.33-.5-.76-.89-1.3-1.17-.54-.27-1.22-.41-2.03-.41s-1.51,.15-2.06,.46c-.55,.31-.99,.72-1.33,1.24-.34,.52-.58,1.12-.72,1.81s-.21,1.42-.21,2.19c0,.9,.07,1.7,.2,2.42,.14,.72,.36,1.33,.69,1.83,.32,.51,.75,.9,1.29,1.16,.54,.27,1.22,.4,2.04,.4s1.51-.15,2.06-.46c.55-.3,1-.72,1.33-1.24,.34-.52,.58-1.14,.72-1.83s.21-1.44,.21-2.23Z"/></g></g></svg>