<svg id="Layer_2" xmlns="http://www.w3.org/2000/svg" viewBox="0 0 41.25 41.25"><defs><style>.cls-1{fill:#fff;}.cls-2{fill:#90cb80;}</style></defs><g id="MP"><circle class="cls-2" cx="20.62" cy="20.62" r="20.62"/><g><path class="cls-1" d="M22.77,28.34c0,.08-.02,.16-.07,.23s-.13,.12-.25,.17-.29,.08-.49,.1-.46,.04-.77,.04-.56-.01-.76-.04-.36-.06-.48-.1-.2-.1-.25-.17-.08-.14-.08-.23V14.98h-.03l-4.76,13.36c-.03,.11-.09,.2-.17,.27s-.18,.13-.31,.17-.3,.07-.5,.08-.45,.02-.74,.02-.53-.01-.74-.03-.37-.06-.5-.1-.23-.1-.31-.17-.13-.15-.15-.24L6.82,14.98h-.03v13.37c0,.08-.02,.16-.07,.23s-.13,.12-.26,.17-.29,.08-.49,.1-.46,.04-.77,.04-.56-.01-.76-.04-.37-.06-.49-.1-.21-.1-.25-.17-.07-.14-.07-.23V13.71c0-.43,.11-.76,.34-.99s.53-.34,.91-.34h2.18c.39,0,.72,.03,1,.1s.52,.17,.72,.32,.37,.34,.51,.58,.25,.54,.36,.9l3.55,9.79h.05l3.68-9.76c.11-.36,.23-.66,.36-.9s.28-.44,.46-.6,.38-.26,.62-.32,.51-.1,.83-.1h2.25c.23,0,.43,.03,.59,.09s.3,.15,.41,.26,.19,.25,.24,.42,.08,.35,.08,.56v14.64Z"/><path class="cls-1" d="M37.6,17.36c0,.92-.14,1.74-.43,2.45-.29,.71-.71,1.31-1.26,1.8-.55,.49-1.22,.86-2.02,1.11s-1.74,.38-2.83,.38h-1.37v5.24c0,.08-.03,.16-.08,.23s-.15,.12-.27,.17-.3,.08-.51,.1-.48,.04-.81,.04-.59-.01-.81-.04-.39-.06-.51-.1-.22-.1-.27-.17-.08-.14-.08-.23V13.57c0-.4,.1-.7,.31-.9s.48-.3,.82-.3h3.87c.39,0,.76,.01,1.11,.04s.77,.09,1.26,.19c.49,.1,.99,.28,1.49,.54,.5,.26,.93,.59,1.29,1s.63,.87,.81,1.41c.19,.54,.28,1.14,.28,1.81Zm-3.49,.24c0-.58-.1-1.05-.3-1.42s-.45-.65-.75-.83c-.3-.18-.61-.29-.93-.34s-.66-.07-1.01-.07h-1.42v5.57h1.5c.53,0,.98-.07,1.34-.22s.65-.34,.88-.6,.4-.57,.52-.93c.12-.36,.18-.75,.18-1.17Z"/></g></g></svg>