<svg
  id="Layer_2"
  xmlns="http://www.w3.org/2000/svg"
  viewBox="0 0 293.97 104.88"
>
  <defs>
    <style>
      .cls-1 {
        fill: #221f1f;
      }
    </style>
  </defs>
  <g id="Layer_12">
    <rect class="cls-1" x="92.2" width="10.03" height="17.48" />
    <rect class="cls-1" x="106.33" width="10.03" height="17.48" />
    <rect class="cls-1" x="92.2" y="20.95" width="24.16" height="9.98" />
    <rect
      class="cls-1"
      x="134.7"
      y="13.45"
      width="10.03"
      height="17.48"
      transform="translate(279.44 44.39) rotate(180)"
    />
    <rect
      class="cls-1"
      x="120.58"
      y="13.45"
      width="10.03"
      height="17.48"
      transform="translate(251.19 44.39) rotate(180)"
    />
    <rect
      class="cls-1"
      x="120.58"
      width="24.16"
      height="9.98"
      transform="translate(265.31 9.98) rotate(180)"
    />
    <rect class="cls-1" x="148.95" width="10.03" height="17.48" />
    <rect class="cls-1" x="163.08" width="10.03" height="17.48" />
    <rect class="cls-1" x="148.95" y="20.95" width="24.16" height="9.98" />
    <rect
      class="cls-1"
      x="191.45"
      y="13.45"
      width="10.03"
      height="17.48"
      transform="translate(392.94 44.39) rotate(180)"
    />
    <rect
      class="cls-1"
      x="177.33"
      y="13.45"
      width="10.03"
      height="17.48"
      transform="translate(364.69 44.39) rotate(180)"
    />
    <rect
      class="cls-1"
      x="177.33"
      width="24.16"
      height="9.98"
      transform="translate(378.81 9.98) rotate(180)"
    />
    <polygon
      class="cls-1"
      points="0 63.7 19 63.7 19 66.58 11.25 66.58 11.25 80.14 7.56 80.14 7.56 66.7 0 66.64 0 63.7"
    />
    <polygon
      class="cls-1"
      points="37.78 63.7 37.78 80.2 41.41 80.2 41.41 73.17 53.19 73.2 53.19 80.2 56.75 80.2 56.75 63.7 53.16 63.7 53.17 70.27 41.38 70.23 41.44 63.7 37.78 63.7"
    />
    <polygon
      class="cls-1"
      points="117.31 80.19 117.33 63.72 121.73 63.72 128.31 75.67 134.98 63.72 139.2 63.72 139.2 80.19 135.62 80.19 135.62 69.19 129.42 80.19 127.2 80.19 120.94 68.94 120.93 80.19 117.31 80.19"
    />
    <polygon
      class="cls-1"
      points="274.59 63.67 277.56 63.67 290.25 74.61 290.25 63.67 293.97 63.67 293.97 80.23 291.12 80.23 278.16 69.17 278.16 80.23 274.59 80.23 274.59 63.67"
    />
    <polygon
      class="cls-1"
      points="83.22 96.52 85.03 96.52 85.03 99.8 90.91 99.8 90.91 96.52 92.69 96.52 92.69 104.86 90.88 104.86 90.91 101.42 85.03 101.39 85.03 104.86 83.22 104.86 83.22 96.52"
    />
    <path
      class="cls-1"
      d="M97.29,96.52v8.34h9.96v-8.34h-9.96Zm7.99,6.7h-6.04v-5.22h6.04v5.22Z"
    />
    <polygon
      class="cls-1"
      points="111.64 96.53 113.6 96.53 113.6 103.22 120.95 103.22 120.95 104.85 111.64 104.85 111.64 96.53"
    />
    <polygon
      class="cls-1"
      points="125.52 96.53 127.48 96.53 127.48 103.22 134.83 103.22 134.83 104.85 125.52 104.85 125.52 96.53"
    />
    <path
      class="cls-1"
      d="M171.56,96.53v8.34h9.96v-8.34h-9.96Zm7.99,6.7h-6.04v-5.22h6.04v5.22Z"
    />
    <path
      class="cls-1"
      d="M185.94,96.53v8.34h9.96v-8.34h-9.96Zm7.99,6.7h-6.04v-5.22h6.04v5.22Z"
    />
    <polygon
      class="cls-1"
      points="139.23 96.53 141.52 96.53 144.11 99.62 146.75 96.53 149.05 96.53 145.11 101.26 145.11 104.85 143.15 104.85 143.15 101.26 139.23 96.53"
    />
    <polygon
      class="cls-1"
      points="153.52 96.52 155.57 96.52 157.26 102.07 159.33 96.52 161.27 96.52 163.32 101.91 165.04 96.52 167.09 96.52 164.55 104.85 162.41 104.85 160.33 99.46 158.18 104.85 156.06 104.85 153.52 96.52"
    />
    <path
      class="cls-1"
      d="M208.13,96.52h-7.67v8.33h7.51l2.44-1.14v-6.04l-2.28-1.14Zm.49,6.04l-1.56,.65h-4.65v-5.23h4.84l1.37,.66v3.92Z"
    />
    <polygon
      class="cls-1"
      points="215.96 63.71 198.01 63.71 198.01 73.17 212.37 73.17 212.37 76.93 198.01 76.93 198.01 80.19 215.96 80.19 215.96 70.24 201.6 70.24 201.6 66.64 215.96 66.64 215.96 63.71"
    />
    <path
      class="cls-1"
      d="M159.97,63.7v16.48h3.6v-6.36h13.71v-10.12h-17.31Zm13.71,7.03h-10.11v-4.09h10.11v4.09Z"
    />
    <path
      class="cls-1"
      d="M235.56,63.71v16.48h19.59v-16.48h-19.59Zm16,13.23h-12.42v-10.28h12.42v10.28Z"
    />
    <path
      class="cls-1"
      d="M77.52,63.71v16.48h19.59v-16.48h-19.59Zm16,13.23h-12.42v-10.28h12.42v10.28Z"
    />
  </g>
</svg>
