<svg id="Layer_2" xmlns="http://www.w3.org/2000/svg" viewBox="0 0 293.97 41.2"><defs><style>.cls-1{fill:#221f1f;}</style></defs><g id="Thompson_Logo"><polygon class="cls-1" points="0 .03 19 .03 19 2.91 11.25 2.91 11.25 16.47 7.56 16.47 7.56 3.03 0 2.97 0 .03"/><polygon class="cls-1" points="37.78 .03 37.78 16.53 41.41 16.53 41.41 9.5 53.19 9.53 53.19 16.53 56.75 16.53 56.75 .03 53.16 .03 53.17 6.59 41.38 6.56 41.44 .03 37.78 .03"/><polygon class="cls-1" points="117.31 16.52 117.33 .05 121.73 .05 128.31 12 134.98 .05 139.2 .05 139.2 16.52 135.62 16.52 135.62 5.52 129.42 16.52 127.2 16.52 120.94 5.27 120.93 16.52 117.31 16.52"/><polygon class="cls-1" points="274.59 0 277.56 0 290.25 10.94 290.25 0 293.97 0 293.97 16.56 291.12 16.56 278.16 5.5 278.16 16.56 274.59 16.56 274.59 0"/><polygon class="cls-1" points="83.22 32.84 85.03 32.84 85.03 36.12 90.91 36.12 90.91 32.84 92.69 32.84 92.69 41.19 90.88 41.19 90.91 37.74 85.03 37.72 85.03 41.19 83.22 41.19 83.22 32.84"/><path class="cls-1" d="M97.29,32.84v8.34h9.96v-8.34h-9.96Zm7.99,6.7h-6.04v-5.22h6.04v5.22Z"/><polygon class="cls-1" points="111.64 32.85 113.6 32.85 113.6 39.55 120.95 39.55 120.95 41.18 111.64 41.18 111.64 32.85"/><polygon class="cls-1" points="125.52 32.85 127.48 32.85 127.48 39.55 134.83 39.55 134.83 41.18 125.52 41.18 125.52 32.85"/><path class="cls-1" d="M171.56,32.86v8.34h9.96v-8.34h-9.96Zm7.99,6.7h-6.04v-5.22h6.04v5.22Z"/><path class="cls-1" d="M185.94,32.86v8.34h9.96v-8.34h-9.96Zm7.99,6.7h-6.04v-5.22h6.04v5.22Z"/><polygon class="cls-1" points="139.23 32.86 141.52 32.86 144.11 35.95 146.75 32.86 149.05 32.86 145.11 37.59 145.11 41.18 143.15 41.18 143.15 37.59 139.23 32.86"/><polygon class="cls-1" points="153.52 32.85 155.57 32.85 157.26 38.4 159.33 32.85 161.27 32.85 163.32 38.24 165.04 32.85 167.09 32.85 164.55 41.18 162.41 41.18 160.33 35.78 158.18 41.18 156.06 41.18 153.52 32.85"/><path class="cls-1" d="M208.13,32.85h-7.67v8.33h7.51l2.44-1.14v-6.04l-2.28-1.14Zm.49,6.04l-1.56,.65h-4.65v-5.23h4.84l1.37,.66v3.92Z"/><polygon class="cls-1" points="215.96 .04 198.01 .04 198.01 9.5 212.37 9.5 212.37 13.25 198.01 13.25 198.01 16.52 215.96 16.52 215.96 6.57 201.6 6.57 201.6 2.97 215.96 2.97 215.96 .04"/><path class="cls-1" d="M159.97,.03V16.52h3.6v-6.36h13.71V.03h-17.31Zm13.71,7.03h-10.11V2.97h10.11V7.06Z"/><path class="cls-1" d="M235.56,.04V16.52h19.59V.04h-19.59Zm16,13.23h-12.42V2.98h12.42V13.27Z"/><path class="cls-1" d="M77.52,.04V16.52h19.59V.04h-19.59Zm16,13.23h-12.42V2.98h12.42V13.27Z"/></g></svg>