<svg id="Layer_2" xmlns="http://www.w3.org/2000/svg" viewBox="0 0 226.44 62.31">
  <g id="Layer_15">
    <path
      d="M0,0H7.83l-.16,13.53,10.69,.03v6.82H7.85l.02,34.12,6.99,.03v6.79h-5.47c-5.43,.39-8.54-2.36-9.38-8.2V0"
    />
    <path
      d="M31.47,21.97v31.68c0,11.48,21.8,11.48,21.8,0V21.97c0-12.5-21.8-12.5-21.8,0Zm7.87,32.5V20.37h6.15l.02,34.1h-6.17Z"
    />
    <path
      d="M70.82,13.57h34.06c2.7,.04,4.32,1.35,4.39,4.53V61.29h-6.97V19.56l-8.59,.11V61.29h-7.1V19.51l-8.63,.03V61.29h-7.14V13.57Z"
    />
    <path
      d="M126.12,13.57h34.06c2.7,.04,4.32,1.35,4.39,4.53V61.29h-6.97V19.56l-8.59,.11V61.29h-7.1V19.51l-8.63,.03V61.29h-7.14V13.57Z"
    />
    <rect x="182" y="13.57" width="7.87" height="47.72" />
    <rect x="182" y=".06" width="7.87" height="7.32" />
    <path
      d="M226.44,39.95V20.27c0-10.42-21.16-10.42-21.16,0V53.73c0,11.45,21.16,11.45,21.16,0v-5.48h-7.94v6.23h-6.12v-14.54h14.06Zm-14.06-19.67h6.99l.08,13.01h-7.08v-13.01Z"
    />
  </g>
</svg>
