<svg id="Layer_2" xmlns="http://www.w3.org/2000/svg" viewBox="0 0 41.25 41.25"><defs><style>.cls-1{fill:#fff;}.cls-2{fill:#5ac6d0;}</style></defs><g id="V1"><circle class="cls-2" cx="20.62" cy="20.62" r="20.62"/><g><path class="cls-1" d="M16.75,28.27c-.04,.14-.1,.26-.17,.35s-.18,.16-.33,.2-.36,.08-.62,.09-.6,.02-1.03,.02c-.34,0-.63,0-.87,0s-.45-.01-.62-.03-.31-.04-.41-.08-.19-.08-.27-.13-.13-.11-.17-.18-.07-.16-.11-.27L7.28,13.67c-.1-.3-.16-.55-.18-.72s.02-.31,.13-.4,.29-.14,.54-.17,.61-.03,1.07-.03c.39,0,.69,0,.91,.03s.39,.05,.51,.09,.2,.11,.25,.19,.09,.19,.13,.32l4,12.67h.01l3.92-12.61c.03-.14,.08-.26,.13-.35s.14-.16,.26-.21,.3-.08,.53-.1,.54-.03,.94-.03,.69,.01,.91,.04,.36,.09,.44,.18,.11,.23,.08,.41-.1,.41-.2,.71l-4.9,14.57Z"/><path class="cls-1" d="M34.14,27.58c0,.24-.01,.44-.04,.6s-.06,.3-.11,.39-.1,.17-.16,.21-.13,.06-.2,.06h-9.06c-.07,0-.13-.02-.19-.06s-.11-.11-.16-.21-.08-.23-.11-.39-.04-.37-.04-.6,.01-.45,.03-.62,.06-.3,.1-.4,.1-.18,.16-.22,.13-.07,.2-.07h3.06V15.59l-2.64,1.46c-.19,.09-.35,.15-.48,.17s-.22,0-.29-.08-.12-.2-.15-.37-.04-.43-.04-.75c0-.2,0-.37,.01-.5s.03-.24,.06-.34,.08-.17,.14-.23,.14-.12,.24-.19l3.53-2.29s.1-.06,.16-.08,.15-.04,.25-.05,.23-.02,.4-.03,.38,0,.64,0c.32,0,.58,0,.78,.02s.35,.03,.45,.06,.17,.07,.2,.12,.05,.11,.05,.19v13.57h2.68c.08,0,.15,.02,.21,.07s.12,.12,.17,.22,.08,.23,.1,.4,.03,.37,.03,.62Z"/></g></g></svg>