<svg id="Layer_2" xmlns="http://www.w3.org/2000/svg" viewBox="0 0 41.25 41.25"><defs><style>.cls-1{fill:#fff;}.cls-2{fill:#90cb80;}</style></defs><g id="V2"><circle class="cls-2" cx="20.62" cy="20.62" r="20.62"/><g><path class="cls-1" d="M16.67,28.36c-.04,.14-.1,.26-.17,.35s-.18,.16-.33,.2-.36,.08-.62,.09-.6,.02-1.03,.02c-.34,0-.63,0-.87,0s-.45-.01-.62-.03-.31-.04-.41-.08-.19-.08-.27-.13-.13-.11-.17-.18-.07-.16-.11-.27L7.2,13.76c-.1-.3-.16-.55-.18-.72s.02-.31,.13-.4,.29-.14,.54-.17,.61-.03,1.07-.03c.39,0,.69,0,.91,.03s.39,.05,.51,.09,.2,.11,.25,.19,.09,.19,.13,.32l4,12.67h.01l3.92-12.61c.03-.14,.08-.26,.13-.35s.14-.16,.26-.21,.3-.08,.53-.1,.54-.03,.94-.03,.69,.01,.91,.04,.36,.09,.44,.18,.11,.23,.08,.41-.1,.41-.2,.71l-4.9,14.57Z"/><path class="cls-1" d="M34.22,27.59c0,.25-.01,.46-.03,.63s-.05,.32-.1,.43-.1,.19-.17,.23-.14,.07-.23,.07h-9.45c-.19,0-.35-.02-.48-.05s-.25-.1-.33-.2-.15-.24-.18-.43-.06-.43-.06-.72c0-.28,.01-.52,.04-.72s.07-.38,.14-.53,.15-.31,.26-.46,.24-.31,.41-.49l2.84-3.05c.57-.59,1.02-1.13,1.37-1.62s.62-.93,.81-1.33,.33-.77,.4-1.11,.11-.66,.11-.96c0-.28-.04-.54-.13-.79s-.22-.47-.39-.65-.39-.33-.65-.44-.57-.16-.93-.16c-.5,0-.94,.06-1.33,.19s-.72,.27-1.02,.43-.54,.3-.73,.43-.35,.2-.46,.2c-.08,0-.14-.03-.2-.08s-.1-.14-.13-.25-.06-.28-.08-.48-.03-.44-.03-.73c0-.19,0-.36,.02-.49s.03-.25,.06-.34,.06-.18,.1-.25,.12-.16,.22-.26,.3-.23,.58-.39,.63-.31,1.05-.46,.87-.27,1.37-.37,1.02-.15,1.56-.15c.85,0,1.6,.11,2.24,.32s1.17,.52,1.59,.9,.74,.84,.95,1.37,.31,1.1,.31,1.71c0,.53-.05,1.06-.15,1.57s-.31,1.07-.63,1.67-.77,1.26-1.36,1.98-1.36,1.56-2.32,2.52l-1.92,1.97h6.47c.08,0,.16,.03,.23,.08s.13,.13,.18,.23,.09,.25,.11,.42,.04,.38,.04,.62Z"/></g></g></svg>