<svg id="Layer_2" xmlns="http://www.w3.org/2000/svg" viewBox="0 0 41.25 41.25"><defs><style>.cls-1{fill:#fff;}.cls-2{fill:#ffdf7f;}</style></defs><g id="V3"><circle class="cls-2" cx="20.62" cy="20.62" r="20.62"/><g><path class="cls-1" d="M16.71,28.26c-.04,.14-.1,.26-.17,.35s-.18,.16-.33,.2-.36,.08-.62,.09-.6,.02-1.03,.02c-.34,0-.63,0-.87,0s-.45-.01-.62-.03-.31-.04-.41-.08-.19-.08-.27-.13-.13-.11-.17-.18-.07-.16-.11-.27L7.24,13.66c-.1-.3-.16-.55-.18-.72s.02-.31,.13-.4,.29-.14,.54-.17,.61-.03,1.07-.03c.39,0,.69,0,.91,.03s.39,.05,.51,.09,.2,.11,.25,.19,.09,.19,.13,.32l4,12.67h.01l3.92-12.61c.03-.14,.08-.26,.13-.35s.14-.16,.26-.21,.3-.08,.53-.1,.54-.03,.94-.03,.69,.01,.91,.04,.36,.09,.44,.18,.11,.23,.08,.41-.1,.41-.2,.71l-4.9,14.57Z"/><path class="cls-1" d="M34.18,24.03c0,.82-.16,1.55-.47,2.18s-.75,1.17-1.31,1.6-1.23,.76-2.01,.98-1.63,.34-2.55,.34c-.56,0-1.08-.04-1.57-.12s-.92-.18-1.3-.3-.69-.24-.93-.37-.41-.22-.48-.29-.13-.14-.17-.23-.07-.18-.1-.3-.05-.26-.06-.43-.02-.38-.02-.63c0-.41,.03-.69,.1-.84s.17-.23,.3-.23c.08,0,.23,.06,.44,.17s.47,.24,.79,.37,.7,.25,1.13,.37,.92,.17,1.47,.17c.47,0,.88-.06,1.23-.17s.66-.26,.91-.46,.44-.44,.56-.72,.18-.6,.18-.95c0-.38-.07-.72-.22-1.03s-.37-.56-.66-.78-.66-.38-1.1-.5-.97-.18-1.57-.18h-1.42c-.11,0-.2-.01-.28-.04s-.14-.09-.19-.18-.09-.22-.11-.39-.03-.38-.03-.64c0-.25,.01-.45,.03-.6s.06-.28,.1-.36,.11-.14,.18-.18,.16-.05,.26-.05h1.43c.49,0,.93-.06,1.31-.17s.7-.28,.96-.49,.46-.47,.59-.77,.2-.63,.2-1c0-.28-.05-.54-.14-.79s-.23-.47-.41-.65-.42-.33-.7-.43-.63-.16-1.02-.16c-.44,0-.85,.07-1.24,.2s-.74,.27-1.05,.43-.57,.3-.79,.44-.37,.2-.48,.2c-.07,0-.13-.01-.18-.04s-.09-.09-.13-.17-.06-.21-.08-.37-.03-.37-.03-.62c0-.21,0-.39,.01-.53s.03-.26,.05-.35,.06-.17,.1-.24,.1-.14,.18-.22,.26-.2,.52-.36,.59-.32,.99-.47,.86-.28,1.38-.39,1.09-.16,1.69-.16c.8,0,1.5,.09,2.11,.28s1.13,.46,1.55,.81,.74,.78,.95,1.29,.32,1.09,.32,1.73c0,.5-.06,.96-.19,1.4s-.31,.82-.56,1.16-.55,.63-.92,.86-.79,.41-1.28,.53v.04c.58,.07,1.09,.21,1.55,.44s.84,.51,1.16,.84,.56,.72,.73,1.15,.25,.89,.25,1.38Z"/></g></g></svg>