<svg id="Layer_2" xmlns="http://www.w3.org/2000/svg" viewBox="0 0 41.25 41.25"><defs><style>.cls-1{fill:#fff;}.cls-2{fill:#666766;}</style></defs><g id="V5"><circle class="cls-2" cx="20.62" cy="20.62" r="20.62"/><g><path class="cls-1" d="M16.75,28.15c-.04,.14-.1,.26-.17,.35s-.18,.16-.33,.2-.36,.08-.62,.09-.6,.02-1.03,.02c-.34,0-.63,0-.87,0s-.45-.01-.62-.03-.31-.04-.41-.08-.19-.08-.27-.13-.13-.11-.17-.18-.07-.16-.11-.27L7.28,13.55c-.1-.3-.16-.55-.18-.72s.02-.31,.13-.4,.29-.14,.54-.17,.61-.03,1.07-.03c.39,0,.69,0,.91,.03s.39,.05,.51,.09,.2,.11,.25,.19,.09,.19,.13,.32l4,12.67h.01l3.92-12.61c.03-.14,.08-.26,.13-.35s.14-.16,.26-.21,.3-.08,.53-.1,.54-.03,.94-.03,.69,.01,.91,.04,.36,.09,.44,.18,.11,.23,.08,.41-.1,.41-.2,.71l-4.9,14.57Z"/><path class="cls-1" d="M34.14,23.4c0,.89-.15,1.68-.46,2.38s-.74,1.29-1.31,1.76-1.24,.84-2.03,1.1-1.67,.38-2.63,.38c-.51,0-.99-.03-1.45-.1s-.87-.14-1.23-.24-.66-.19-.9-.29-.39-.18-.46-.24-.12-.13-.16-.21-.06-.17-.08-.27-.04-.24-.04-.4-.01-.35-.01-.57c0-.24,0-.44,.03-.6s.04-.3,.08-.4,.08-.17,.13-.22,.11-.06,.18-.06c.08,0,.21,.05,.39,.15s.4,.21,.69,.32,.63,.23,1.03,.32,.89,.15,1.46,.15c.49,0,.94-.05,1.34-.15s.74-.26,1.02-.49,.5-.51,.65-.84,.23-.74,.23-1.22c0-.41-.06-.77-.19-1.09s-.33-.59-.6-.81-.62-.39-1.05-.5-.96-.17-1.57-.17c-.49,0-.94,.03-1.34,.08s-.78,.08-1.14,.08c-.25,0-.42-.06-.53-.18s-.16-.35-.16-.68v-7.13c0-.34,.07-.58,.2-.73s.34-.22,.63-.22h7.78c.08,0,.15,.03,.22,.08s.12,.13,.17,.24,.08,.26,.1,.44,.03,.4,.03,.65c0,.51-.04,.88-.13,1.1s-.22,.34-.39,.34h-5.84v3.52c.3-.03,.59-.06,.88-.06s.6-.01,.92-.01c.89,0,1.68,.1,2.37,.31s1.27,.51,1.74,.91,.83,.9,1.07,1.5,.37,1.29,.37,2.08Z"/></g></g></svg>