<svg id="Layer_2" xmlns="http://www.w3.org/2000/svg" viewBox="0 0 41.25 41.25"><defs><style>.cls-1{fill:#fff;}.cls-2{fill:#588dca;}</style></defs><g id="V6"><circle class="cls-2" cx="20.62" cy="20.62" r="20.62"/><g><path class="cls-1" d="M16.54,28.26c-.04,.14-.1,.26-.17,.35s-.18,.16-.33,.2-.36,.08-.62,.09-.6,.02-1.03,.02c-.34,0-.63,0-.87,0s-.45-.01-.62-.03-.31-.04-.41-.08-.19-.08-.27-.13-.13-.11-.17-.18-.07-.16-.11-.27L7.07,13.66c-.1-.3-.16-.55-.18-.72s.02-.31,.13-.4,.29-.14,.54-.17,.61-.03,1.07-.03c.39,0,.69,0,.91,.03s.39,.05,.51,.09,.2,.11,.25,.19,.09,.19,.13,.32l4,12.67h.01l3.92-12.61c.03-.14,.08-.26,.13-.35s.14-.16,.26-.21,.3-.08,.53-.1,.54-.03,.94-.03,.69,.01,.91,.04,.36,.09,.44,.18,.11,.23,.08,.41-.1,.41-.2,.71l-4.9,14.57Z"/><path class="cls-1" d="M34.34,23.36c0,.83-.13,1.6-.38,2.3s-.63,1.32-1.12,1.83-1.1,.91-1.82,1.21-1.55,.44-2.49,.44c-.76,0-1.43-.09-1.99-.26s-1.06-.42-1.47-.75-.75-.72-1.02-1.19-.47-.99-.63-1.57-.26-1.22-.32-1.9-.09-1.41-.09-2.18c0-.64,.03-1.32,.1-2.02s.19-1.39,.37-2.07,.44-1.32,.77-1.94,.76-1.15,1.28-1.61,1.15-.83,1.89-1.1,1.62-.41,2.63-.41c.32,0,.65,.02,.97,.06s.63,.09,.91,.15,.52,.13,.71,.2,.32,.14,.39,.2,.11,.12,.15,.18,.06,.14,.08,.22,.04,.18,.04,.3,.01,.26,.01,.43c0,.26,0,.48-.02,.65s-.04,.31-.07,.41-.08,.17-.14,.21-.13,.06-.22,.06c-.1,0-.23-.03-.39-.08s-.36-.12-.58-.18-.5-.13-.81-.18-.67-.08-1.07-.08c-.69,0-1.27,.13-1.74,.38s-.86,.6-1.16,1.03-.51,.94-.65,1.52-.21,1.19-.22,1.83c.19-.12,.4-.24,.64-.36s.5-.22,.79-.3,.59-.15,.92-.21,.68-.08,1.05-.08c.83,0,1.54,.11,2.13,.34s1.08,.55,1.45,.98,.65,.94,.83,1.54,.27,1.27,.27,2.01Zm-3.28,.32c0-.43-.04-.81-.11-1.14s-.2-.6-.37-.83-.39-.39-.67-.51-.62-.17-1.02-.17c-.24,0-.47,.02-.7,.06s-.45,.1-.67,.18-.43,.17-.63,.27-.39,.22-.57,.34c0,.91,.05,1.66,.15,2.27s.25,1.09,.45,1.44,.45,.61,.75,.76,.65,.22,1.05,.22,.73-.07,1.02-.22,.54-.35,.73-.61,.34-.57,.44-.92,.15-.73,.15-1.15Z"/></g></g></svg>