<svg id="Layer_2" xmlns="http://www.w3.org/2000/svg" viewBox="0 0 41.25 41.25"><defs><style>.cls-1{fill:#fff;}.cls-2{fill:#666766;}</style></defs><g id="V7"><circle class="cls-2" cx="20.62" cy="20.62" r="20.62"/><g><path class="cls-1" d="M16.67,28.26c-.04,.14-.1,.26-.17,.35-.07,.09-.18,.16-.33,.2s-.36,.08-.62,.09c-.26,.01-.6,.02-1.03,.02-.34,0-.63,0-.87,0s-.45-.01-.62-.03c-.17-.02-.31-.04-.41-.08-.11-.03-.2-.08-.27-.13-.07-.05-.13-.11-.17-.18s-.07-.16-.11-.27L7.2,13.66c-.1-.3-.16-.55-.18-.72-.02-.18,.02-.31,.13-.4,.11-.09,.29-.14,.54-.17s.61-.03,1.07-.03c.39,0,.69,0,.91,.03,.22,.02,.39,.05,.51,.09,.12,.04,.2,.11,.25,.19,.05,.08,.09,.19,.13,.32l4,12.67h.01l3.92-12.61c.03-.14,.08-.26,.13-.35s.14-.16,.26-.21c.12-.05,.3-.08,.53-.1s.54-.03,.94-.03,.69,.01,.91,.04,.36,.09,.44,.18c.08,.1,.11,.23,.08,.41-.03,.18-.1,.41-.2,.71l-4.9,14.57Z"/><path class="cls-1" d="M34.21,13.82c0,.25,0,.46-.03,.64-.02,.18-.04,.35-.07,.51-.03,.16-.07,.3-.12,.44s-.11,.29-.18,.45l-5.41,12.53c-.05,.11-.12,.2-.2,.27-.08,.07-.19,.12-.34,.16-.14,.04-.33,.06-.55,.08-.22,.01-.5,.02-.83,.02-.45,0-.8-.01-1.07-.04-.26-.03-.46-.08-.58-.14-.12-.06-.19-.14-.2-.24,0-.1,.02-.22,.09-.36l5.81-12.82h-6.91c-.18,0-.31-.12-.4-.35s-.13-.6-.13-1.11c0-.25,.01-.47,.04-.65s.06-.33,.11-.45c.05-.12,.1-.2,.17-.25s.14-.08,.22-.08h9.76c.15,0,.28,.01,.38,.04s.18,.1,.24,.2c.06,.1,.1,.25,.13,.43,.03,.19,.04,.43,.04,.74Z"/></g></g></svg>