<?xml version="1.0" encoding="UTF-8"?><svg id="Layer_2" xmlns="http://www.w3.org/2000/svg" viewBox="0 0 41.25 41.25"><defs><style>.cls-1{fill:#fff;}</style></defs><g id="V8"><circle cx="20.62" cy="20.62" r="20.62"/><g><path class="cls-1" d="M16.54,28.26c-.04,.14-.1,.26-.17,.35s-.18,.16-.33,.2-.36,.08-.62,.09-.6,.02-1.03,.02c-.34,0-.63,0-.87,0s-.45-.01-.62-.03-.31-.04-.41-.08-.19-.08-.27-.13-.13-.11-.17-.18-.07-.16-.11-.27L7.07,13.66c-.1-.3-.16-.55-.18-.72s.02-.31,.13-.4,.29-.14,.54-.17,.61-.03,1.07-.03c.39,0,.69,0,.91,.03s.39,.05,.51,.09,.2,.11,.25,.19,.09,.19,.13,.32l4,12.67h.01l3.92-12.61c.03-.14,.08-.26,.13-.35s.14-.16,.26-.21,.3-.08,.53-.1,.54-.03,.94-.03,.69,.01,.91,.04,.36,.09,.44,.18,.11,.23,.08,.41-.1,.41-.2,.71l-4.9,14.57Z"/><path class="cls-1" d="M34.34,24.44c0,.74-.13,1.41-.39,1.99s-.64,1.08-1.14,1.48-1.13,.71-1.87,.91-1.6,.31-2.58,.31-1.75-.09-2.45-.28-1.29-.46-1.76-.82-.83-.8-1.07-1.33-.36-1.14-.36-1.82c0-.47,.07-.9,.21-1.31s.35-.79,.62-1.14,.62-.68,1.03-.99,.88-.6,1.42-.88c-.43-.24-.82-.49-1.17-.77s-.64-.58-.89-.9-.43-.68-.56-1.07-.19-.81-.19-1.27c0-.66,.12-1.26,.35-1.8s.58-1,1.04-1.4,1.04-.7,1.73-.91,1.5-.32,2.41-.32,1.68,.1,2.33,.29,1.18,.47,1.59,.83,.72,.78,.92,1.28,.3,1.04,.3,1.64c0,.4-.07,.79-.2,1.16s-.32,.73-.55,1.07-.53,.66-.88,.96-.74,.57-1.18,.82c.52,.27,.98,.56,1.38,.86s.75,.63,1.03,.98,.49,.73,.64,1.12,.22,.83,.22,1.29Zm-3.3,.23c0-.31-.05-.6-.16-.86s-.27-.5-.5-.73-.51-.45-.84-.66-.73-.43-1.18-.65c-.39,.21-.73,.42-1.03,.63s-.54,.43-.74,.67-.34,.48-.44,.74-.15,.54-.15,.83c0,.66,.21,1.16,.64,1.51s1.06,.52,1.91,.52,1.45-.18,1.86-.53,.62-.85,.62-1.47Zm-.38-8.2c0-.3-.04-.56-.13-.8s-.22-.44-.4-.6-.41-.29-.67-.37-.58-.13-.95-.13c-.71,0-1.24,.16-1.59,.49s-.52,.78-.52,1.35c0,.27,.04,.52,.13,.75s.23,.44,.41,.65,.43,.4,.72,.6,.65,.4,1.05,.62c.62-.36,1.09-.75,1.43-1.17s.5-.88,.5-1.38Z"/></g></g></svg>